<svg xmlns="http://www.w3.org/2000/svg" viewBox="0 0 36.97 40.58"><defs><style>.cls-1{fill:#533c1b;}.cls-2{fill:#c09351;}</style></defs><g id="圖層_7" data-name="圖層 7"><path class="cls-1" d="M41.87,55.1V52.58c-2.38,0-4.68,0-7,0-.3,0-.65.49-.86.83a3,3,0,0,1-3.18,1.71V36h3.66c0,.78,1.54.89,2.42.89H40c.74,0,2.12-.11,2.12-.92h3.7c0,.49,0,.83,0,1.22,0,4.35,0,8.71,0,13.07a9.51,9.51,0,0,1-.42,2.7C44.92,54.58,43.8,55.1,41.87,55.1Zm0-9.65h-7.1V50.3c0,.25.42.57.67.57,1.91.06,3.82.07,5.73,0,.26,0,.7-.37.7-.64Zm-7.1-6.54V43a.76.76,0,0,0,.55.57c2,.05,4,0,6,0,.41,0,.58-.16.58-.35V38.91Z" transform="translate(-28.32 -15.11)"/><path class="cls-1" d="M49.85,55.6V37.51h3.46s.1,0,.12,0c.87.87,1.07.88,5,.88.54,0,1.11,0,1.67,0s1.28-.07,1.28-.65c0-.11.38-.25.58-.26,1,0,2.18,0,3.29,0v1c0,4.27,0,8.55-.06,12.82,0,2.49-1.18,4.06-3.1,4.34a5.15,5.15,0,0,1-.71,0V52.94c-5.19,0-6.51,0-7.16,0-.32,0-.91.58-1.13,1A3.08,3.08,0,0,1,49.85,55.6ZM61.4,51.16V40.38H53.9V51.16Z" transform="translate(-28.32 -15.11)"/><path class="cls-1" d="M33.17,24.83h-4c.23,3,1.92,4.73,5.57,5.82Z" transform="translate(-28.32 -15.11)"/><path class="cls-1" d="M53.05,20.83H51c0-.63,0-1.13,0-1.7H65.27v1c0,3.91,0,3.61,0,7.52,0,1.51-.34,2.58-1.16,2.91-.55.22-1.88.82-2.72,1.08,0-5.24,0-5.67,0-10.8H53.05Z" transform="translate(-28.32 -15.11)"/><path class="cls-1" d="M28.32,22.32v-1.5h7.06V16.5h4.1c-.32,1.45-.61,2.83-.93,4.31h6.67v1.51Z" transform="translate(-28.32 -15.11)"/><path class="cls-2" d="M52.39,20.84l-.11,10.8s2.38-.35,3.72-3.54c1-2.32,1-4.71,1-7.27Z" transform="translate(-28.32 -15.11)"/><path class="cls-2" d="M29.93,52.43a4.24,4.24,0,0,0,.95,0,11.3,11.3,0,0,0,8.55-6A24.21,24.21,0,0,0,42.2,34.81c0-.46,0-1.12.63-1.12H38.35C37.89,41.06,37.06,48.05,29.93,52.43Z" transform="translate(-28.32 -15.11)"/><path class="cls-2" d="M65.25,44.19c-3.18,1.35-3.68,4.54-3.85,7H53.9c0-1.07,0-2.86,0-3.9.11-4.24,0-7.92,0-12.16,0-1,.34-1.47,1.27-1.44,2.23.06,2.62,0,4.85,0h5.16c0-.59,0-1,0-1.72h-17c1.48-1.6,1.5-3.33,1.47-5.11,0-3.44,0-6.88,0-10.32V15.13c-1,0-1.77,0-2.76,0s-1.2.36-1.19,1.25c0,3.4,0,6.8,0,10.2V32H28.32v1.7H49.85V35.1c0,5.36,0,10.7,0,16.06A2,2,0,0,0,52,53c4.94-.06,7.17-.1,12.12-.11H65C65.41,51.8,65.24,47.4,65.25,44.19Z" transform="translate(-28.32 -15.11)"/><path class="cls-2" d="M41.68,29.81a10.74,10.74,0,0,0,2.31.84c-.09-.43-2.66-4.63-3.25-7,0-.18-.28-.49-.43-.49H36.44C37.84,25.86,39.33,28.2,41.68,29.81Z" transform="translate(-28.32 -15.11)"/><path class="cls-1" d="M40.69,43.59c-1.29,0-2.79,0-4.08,0a15.66,15.66,0,0,1-.48,1.85H40A18,18,0,0,0,40.69,43.59Z" transform="translate(-28.32 -15.11)"/><path class="cls-1" d="M42.16,36c0,.78-1.39.92-2.12.92H38.1c-.07.66-.3,1.32-.39,2h4.23c.14-.88,1.17-2.54.39-2.87Z" transform="translate(-28.32 -15.11)"/></g></svg>